<svg width="480px" height="480px" style="margin: -50px" xmlns="http://www.w3.org/2000/svg" xmlns:xlink="http://www.w3.org/1999/xlink" enable-background="new 0 0 1080 1080" viewBox="0 0 1080 1080" license="https://iconscout.com/illustration/man-climbing-on-mountain-2061832">
    <circle cx="888" cy="620.4" r="110.5" fill="none" stroke="#d3d3d3" stroke-dasharray="12 14" stroke-miterlimit="10"/>
    <defs>
        <path id="a" d="M217.7 325.6C189.7 338 161 351.8 141 376s-28.8 61.7-12.6 88.9c15.6 26.1 50.8 39 55.5 69.5 2.9 18.5-7.5 36.7-21 48.9-13.4 12.2-29.9 20-44.7 30.2-33.4 23-59 60.3-64.3 102.1-5.2 41.8 12.2 87.2 46.2 109.2 33 21.3 74.6 18.5 113.1 14.2 159.7-17.6 318.2-48.1 473.5-91.3 65.1-18.1 130.7-38.9 186.7-78.3 25.8-18.1 51-43.8 52.5-76.5 1.4-31.7-19.9-59.6-25-90.9-10.9-67.4 74.8-114 82.9-181.8 5.8-49-20.5-98.4-58.9-126.5s-87.1-37.2-133.8-34.7c-46.7 2.5-89.7 11.9-134.8 25 .2-.2-299 79.5-438.6 141.6z"/>
    </defs>
    <clipPath id="b">
        <use overflow="visible" xlink:href="#a"/>
    </clipPath>
    <g clip-path="url(#b)">
        <path fill="#f7f7f7" d="M40.6 130.7h966.1V891H40.6z"/>
        <path fill="#d3d3d3" d="M893.1 891H-69.5V670.7c41.7-21.3 73.4-66.4 109.1-101.9s82.7-62.8 124.3-41.2c23.6 12.2 41.4 38.3 57.5 64.3 31.9 51.5 63.2 108.5 109.7 133.6 45.2-22.7 84.6-61.4 126.4-93.6s88.7-58.9 136.8-53.6c59 6.5 108.7 59.3 151.6 113.3L893.1 891z"/>
        <path fill="#ffa4ff" d="M523.7 494.4c-11.8-20.1-30.8-35.8-52.8-43.6-9.4-3.3-20.9-4.9-28.6 1.4-7.7 6.3-5 22.5 5 22.3-30.9-21.4-68-33.5-105.5-34.4-9.4-.2-20 .8-26 8.1s-1 21.7 8.3 20c-28.3-18.2-65.7-12.6-97.4-1.3-9.2 3.3-18.3 7-27.4 10.6-10 4-7.1 18.8 3.7 18.8l320.7-1.9z"/>
        <path fill="#ffbe55" d="M996.7 148.5V859H271.5l31.8-41.9 21.9-12.6 84.7-7.9 92-52 11.8-58.8 38.1-9L553 573l16.2-16.1-12.6-38.4-8.6-26.3-11.2-33.9 4.8-24.7L573 419l10.1-74.4-20.5-29.8-6.6-37.2-2.8-15.8 16-20.4-8.7-37.1 39.7-61.6z"/>
        <path fill="#e59520" d="m627.9 344.6-36 74.4-35.9 48.6-8 24.6-11.2-33.9 4.8-24.7L573 419l10.1-74.4-20.5-29.8-6.6-37.2 24.3 29h23.2zM573.7 664.4c.4 5.7 8.7 21.4 8.7 21.4l-45.5 29.1-9.5 59.6-40.5 25.9-88.7 9.4-54.8 17.7-27.6 31.5h-44.3l31.8-41.9 21.9-12.5 84.6-7.9 92-52.1 11.9-58.8 38.1-9L553 573l16.2-16.1-12.6-38.4 54 21.3c0 .1-37.3 118.9-36.9 124.6z"/>
        <path fill="#e59520" d="M765.1 492.2 706.3 551l25.6 113.4-46 103.5-80.6 6.6-68.4 51.2 23.6 33.3h-36.7L450 828.3l103-30.7 21.5-53 15.3 5.7 89.5-85.9L648.7 543l30.7-14.5 58.8-79.3s3.8-169.7 0-179.9c-3.8-10.2-62.7 0-62.7 0l-7.7-71.6-14.8-35.3h33.1l16.2 44.3 74.2 29.4 16.6 115.7-28 140.4zM840.1 393.9l-46.8 36.5-11.2 54.4 29-21.7 43.2-44.1zM874 682.8c-16.5 3.1-118.2 61.8-118.2 61.8l-21 60 83.4-36.6s51.3-31.2 55.8-34.2 0-51 0-51z"/>
        <path fill="#e59520" d="m498.2 694.3-8.4 5.7 8.4 6.2 5.2-6zM430 764.8c-2.3 0-23.3 5.7-23.3 5.7v13.7h17.1l6.2-19.4zM443.6 748.9l-2.6 9.7 9 2.2 2.5-5.9zM459 721.6l4 3.4-4 2.3zM477.8 736.9l-6.3 7.7 6.3 4.3zM280.4 815.4l-21.1 15.4 12.2 2.3 13.4-11.4zM322.5 793.8l-7.4 3.4 3.7 2.9zM287.8 824.2l3.4 8.9 3.8-8.9z"/>
        <path fill="#fcd2b1" d="M356.8 630.8c-5.4 22.4-73.2 131.5-77.3 136.9-8.8 2-12.9-12.2-12.9-12.2s24.4-74.5 41.3-85.4c8.8-18.3 4.7-56.9 25.4-66.4 18.1 4.7 23.5 27.1 23.5 27.1zM471 528.5c8.3.9 14.6 2.1 19.4 3.3 8.7 2.2 15.1 9.5 16.3 18.3l14.4 108.4h-11.8s-33.3-73.1-27.4-87.1c-12.8-2.1-29.6-13.8-29.6-13.8l18.7-29.1z"/>
        <path fill="#2a94f4" d="M396.5 530c16.9-1.7 82-2.2 93.4 0-7.4 9.2-25.3 37.6-27.9 39.3-2.6 1.7-66.8 11.4-70.7 11.4-2.6 9.6-23.8 58.5-29.6 63.7-18 1.7-49.3-12.7-49.1-24 8.9-14.4 25.6-87 25.6-87l58.3-3.4z"/>
        <path fill="#fcd2b1" d="M438 361.6c29.6-49.2 84.4-81.1 94.1-91.5 8.3-9.4 30.1-26.7 37.1-28.7-5.7 5.7-15.7 17-16 20.4 4.3-2 14.2-3.7 14.2-3.7s-12.5 11.7-20.8 15.4c-8.3 3.7-103.7 103.1-109.6 121.3-6 18.3 1-33.2 1-33.2z"/>
        <path fill="#0e538c" d="M343.9 517.9c-10.2 1-28.6 3.3-41.3-2.8-4.2-2-7.7-4.9-10.2-8.9 3.9-29.4 22.3-89.8 43-105.1.3-.2.6-.4.9-.5 2-.7 5.2 0 5.2 0l2.4-1.9s-6.8-2.3-7.2-4.9c-.8-4.4 16.3-30.4 29.5-35.8 1.5-.6 2.9-1 4.3-1 13.4-.2 25.8 7.3 25.7 15.5 4.1 23.3-43.2 138.6-52.3 145.4z"/>
        <path fill="#fcd2b1" d="M460 372.6c-7 2.5-19.9 15.8-21.9 21.3-3.8-6-14.8-16.7-27-12.8 16.1-13.6 30.2-19.3 30.2-19.3l18.7 10.8z"/>
        <path fill="#0b4870" d="M429 306.6c-12.3 1.7-27.2 4.2-25.1 25.7 2.1 21.5 14.2 43.7 42.7 39.9 1-18.9-17.6-65.6-17.6-65.6z"/>
        <path fill="#ffe3ca" d="M470.7 336.3c6.5 14.8 10.9 31.1-1.1 36.4-12 5.3-37.7-2.1-44.3-16.8-6.5-14.8-.2-31.4 11.8-36.7 12.1-5.4 21.5-10.9 33.6 17.1z"/>
        <path fill="#0b4870" d="M425.6 327.1c10.1 1.5 36.5.8 39-11.5s-6.9-20.5-15.4-15.5c2.3.9 8.2 6.1 6 7.3-2.1 1.3-39.2-7.2-43.5 9.6-4.4 16.9 13.9 10.1 13.9 10.1z"/>
        <path fill="#0b4870" d="M433.2 324.4s1 14.3-5.2 20.3c.4 5.5 4.1 11.9 4.1 11.9l-8.8.6-11.3-35.8 21.2 3z"/>
        <ellipse cx="423.6" cy="355.7" fill="#ffe3ca" rx="5.7" ry="8.4" transform="rotate(-42.718 423.602 355.672)"/>
        <path fill="#ffbe55" d="M442.8 427.2c-.1 12.5-1.1 20.5-1.1 20.5s-.6.9-1.7 2.5c-2.9 4.3-9.3 13.8-16.1 24.2-7.5 11.4-15.4 23.7-19.8 31.3-1.3 2.2-2.2 4.4-2.9 6.5-.9 2.7-1.3 5.3-1.4 7.8-.5 10 4.3 17 4.3 17-13.8 4.7-47.3 27.9-70.8 2.2 1.2-6.2 2.8-13.4 4.6-21.1.7-2.9 1.5-5.9 2.2-8.9 1-3.9 2-7.8 3.1-11.8.8-2.8 1.5-5.6 2.3-8.4 7.9-28.2 16.8-55.1 20.3-59.9 3.2-4.4 16.1-18.8 26.7-30.6 4.7-5.2 9-9.9 11.8-13 2.1-2.3 3.4-3.7 3.4-3.7 8.2-4.6 31.3-6.6 33.8 19.7.4 3.9.6 7.8.8 11.4.5 5.1.5 10 .5 14.3z"/>
        <path fill="#fcd2b1" d="m515.9 433.9 21.5-12.9s28.4-3.2 29.8-1.4c-2 1.7-22.7 4.6-22.7 4.6 6.3.9 12.9 1.1 12.9 1.1s10.9 4.6 9.8 5.2c-4.3.3-10.9-2.3-10.9-2.3l-11.8.3 5.7 2 4.9 6.9c-3.4-.3-7.5-4.6-7.5-4.6l-6.1.9s-4.6 6.2-14.3 8.3c-8.7-.7-11.3-8.1-11.3-8.1z"/>
        <path fill="#0e538c" d="M442.8 427.2c-.9-7.6-2.2-15.1-4.5-22.3-.4-1-.6-2.1-1.1-3l-1.2-3c-.5-.9-1-1.9-1.5-2.8-.2-.5-.5-.9-.8-1.3l-.9-1.3-.4-.6-.5-.6-1-1.2c-.3-.4-.7-.7-1.1-1.1l-1.1-1c-.4-.3-.8-.6-1.2-.8-.4-.3-.8-.6-1.3-.8-.9-.4-1.8-.9-2.7-1.1-2-.6-4.1-.8-6.3-.6-1.9.2-3.7.6-5.5 1.2-3.9 1.3-7.7 3.3-11.2 5.7-2.6 1.8-5.2 3.7-7.7 5.7-4.1 3.4-8.1 7.1-11.9 10.9l-3.8-4c6.5-5.9 13.3-11.7 21-16.4 2.1-1.3 4.3-2.4 6.5-3.5 1.9-.9 3.8-1.6 5.9-2.2l1.7-.5c.6-.1 1.1-.2 1.7-.3 1.1-.2 2.3-.3 3.5-.4 2.4 0 4.8.2 7.1 1 1.2.3 2.2.9 3.3 1.5.6.2 1 .7 1.5 1 .5.4 1 .7 1.4 1.1l1.3 1.2c.4.4.9.8 1.2 1.3l1.1 1.4.5.7.5.7.9 1.5c.3.5.6 1 .8 1.5.5 1 1 2 1.5 3.1l1.2 3.2c.4 1 .7 2.1 1 3.2.8 2.8 1.5 5.6 2 8.5.1 5.2.1 10.1.1 14.4zM433.8 451.9c-6.3 6.5-13 12.7-20 18.4-7.1 5.7-14.5 10.9-22.5 15.5-8 4.5-16.6 8.2-25.8 10.4-7.1 1.6-14.7 2.2-22.1 1.1.8-2.8 1.5-5.6 2.3-8.4 5.8.6 11.9.1 17.7-1.3 8.1-2 15.9-5.4 23.2-9.7 7.4-4.3 14.4-9.3 21-14.9 6.6-5.5 13-11.5 18.9-17.8l7.3 6.7z"/>
        <path fill="#fcd2b1" d="M409.9 387.5c-10.4 6.6-8.3 72.1 21.8 94.2s95.6-39.9 95.6-39.9l-11.4-8s-85.8 85-80.1-32.5c0-8-14.1-22.4-25.9-13.8z"/>
        <path fill="#0e538c" d="M401.2 512.1c-.9 2.7-1.3 5.3-1.4 7.8-8.4 1.7-17 3.1-25.8 3.7-7.5.5-15.1.6-22.8-.9-3.8-.7-7.7-1.9-11.4-3.8-.6-.3-1.2-.6-1.8-1 .7-2.9 1.5-5.9 2.2-8.9 3.4 2.7 7.9 4.5 12.7 5.5 6.6 1.4 13.6 1.6 20.7 1.2 7.1-.4 14.1-1.3 21.2-2.4 2.2-.4 4.3-.8 6.4-1.2z"/>
        <path fill="#df007a" d="M348.7 506.2s-7.2 18-6.7 23.1c5.1 4.4 12.3 4.1 12.3 4.1s5.4-23.9 7.2-24.4c-5.1-2-12.8-2.8-12.8-2.8z"/>
        <path fill="#0b4870" d="M366.2 358.1c-2.6 17.6-12.4 35.8-22.3 40.6 0 0-6.8-2.3-7.2-4.9-.9-4.3 16.3-30.3 29.5-35.7zM302 515.5c-4.2-2-7.7-4.9-10.2-8.9 3.9-29.4 22.3-89.8 43-105.1.3-.2.6-.4.9-.5 2.8 25.9 4.1 95-33.7 114.5z"/>
        <path fill="#0e538c" d="M328.2 449.2c-9.7 0-21.3-1.9-24.9-4.8l3.5-4.3c3.5 2.9 25.1 5 31 2.4l2.2 5c-2.4 1.2-6.9 1.7-11.8 1.7z"/>
        <path fill="#0b4870" d="M395.3 375.8c.3-3.2.5-6.4.5-9.5 0-3.2-.1-6.3-.7-9.3-.3-1.5-.7-2.9-1.3-4-.3-.5-.7-.9-1-1.1-.3-.2-.5-.2-.9-.1-.1 0-.6.1-.8.2-.3.1-.6.2-.8.3-.5.2-.9.5-1.1.8-.2.3-.3.5-.4.8 0 .2-.1.3-.1.5v.5l-.1-.4c.5 1.2 1 2.4 1.5 3.7l1.4 3.7 2.7 7.5v.1c.2.9.3 1.7.4 2.8.1 1.1.3 2.3.7 3.5zm0 0c-.3-.7-.8-1.5-1.4-2.4-.6-.9-1.2-2-1.7-3.1v.1l-4.3-6.7-2.1-3.4c-.7-1.1-1.3-2.3-2-3.5l-.1-.1-.1-.2c-.1-.5-.2-.7-.2-1 0-.3-.1-.6-.1-.9 0-.6 0-1.2.2-1.8.3-1.2 1-2.5 2-3.3 1-.8 2-1.3 3-1.6l1.5-.3c.5-.1.9-.1 1.5-.1 1.2 0 2.6.4 3.6 1.2 1 .8 1.5 1.8 1.9 2.7.7 1.8.9 3.6 1 5.2.1 3.4-.3 6.6-.7 9.8-.5 3.2-1.2 6.3-2 9.4z"/>
        <path fill="#f7f7f7" d="m320.1 467.1-9.3-2.1c-.4-.1-.7-.5-.6-.9l1-4.5c.1-.4.5-.7.9-.6l9.3 2.1c.4.1.7.5.6.9l-1 4.5c-.1.4-.5.7-.9.6z"/>
        <path fill="#df007a" d="M321.4 483.8s0-.1 0 0l2.8-12.4.1-.3c.5-2.4-.8-4.8-3-5.6-.2-.1-.5-.2-.7-.2l-9.3-2.1c-.3-.1-.5-.1-.8-.1-2.3-.2-4.5 1.4-5.1 3.8l-.2 1-3.3 14.9c-.6 2.6 1.1 5.3 3.7 5.8l9.3 2.1c1.8.4 3.7-.3 4.8-1.6l1.7-5.3z"/>
        <path fill="#0e538c" d="M325.2 471.4c-7.1-.2-19.5-1.9-20.4-3.8-2.4 3.4-8.1 25.7-3.6 30.2s11.3 5.4 13.7 2.8c2.4-2.6 10.3-29.2 10.3-29.2zM540.5 686.9c-3.1 1.7-39.2 1.7-39.2 1.7l-.6-4.4-4.9-35.1 25.7-9s-1 20.1 0 21.5c0 0 2.1 6.6 3 9.7.9 3.1 8.5 3.1 13.3 5.5 4.5 2.3 8.8-1.5 14.1 0 .4.1.8.2 1.2.4.9 4.2-9.5 8-12.6 9.7z"/>
        <path fill="#0b4870" d="M540.5 686.9c-3.1 1.7-39.2 1.7-39.2 1.7l-.6-4.4 43.1-1.5 8.1-5.9c.4.1.8.2 1.2.4.9 4.2-9.5 8-12.6 9.7z"/>
        <path fill="#0e538c" d="M279.2 802.3c-3.5-.7-31.2-23.8-31.2-23.8l2.4-3.8 18.7-30.1 25.5 9.5s-13.7 14.8-13.8 16.5c0 0-2.6 6.4-3.9 9.4-1.3 3 4.5 7.8 6.7 12.8 2 4.6 7.7 4.5 10.9 9 .2.3.4.7.6 1-1.9 3.8-12.4.1-15.9-.5z"/>
        <path fill="#0e538c" d="M279.2 802.3c-3.5-.7-31.2-23.8-31.2-23.8l2.4-3.8 34 26.4 10 .6c.2.3.4.7.6 1-1.8 3.9-12.3.2-15.8-.4z"/>
        <path fill="#ffa4ff" d="M179.1 337.2c-6.9 2.5-13.9-6-12.4-13.2s8.2-12.1 14.9-15.1c15.2-6.7 33.3-6.6 48.4.2-3.5-2.7-3.3-8.5-.4-11.9 2.8-3.4 7.3-5 11.7-5.8 20.8-4 43.4 5.2 55.6 22.4-4-4.2-1.8-11.8 3-15 4.8-3.2 11.2-3.1 16.9-2.1 24.6 4.4 45.4 17.8 50.1 42.3l-187.8-1.8z"/>
    </g>
</svg>