<?xml version="1.0" encoding="UTF-8"?>
<svg width="172.50636mm" height="86.856262mm" version="1.1" viewBox="0 0 611.24301 307.75841" xmlns="http://www.w3.org/2000/svg">
  <g transform="translate(-112.30799,49.757587)">
    <path d="m355.95032-49.757587c-18.94418 0-34.19542 15.250953-34.19542 34.19528v239.36785c0 18.94432 15.25124 34.19528 34.19542 34.19528h51.2931c18.94418 0 34.19541-15.25096 34.19541-34.19528v-239.36785c0-18.944327-15.25123-34.19528-34.19541-34.19528zm141.05608 17.09764c-18.94417 0-34.1954 15.250953-34.1954 34.195278v222.27021c0 18.94432 15.25123 34.19528 34.1954 34.19528h51.2931c18.94419 0 34.19542-15.25096 34.19542-34.19528v-222.27021c0-18.944325-15.25123-34.195278-34.19542-34.195278zm-282.11217 34.195278c-18.94418 0-34.19541 15.25095-34.19541 34.195268v81.214361h85.48856c12.93255 0 24.77363 4.41421 34.19541 11.76955v-92.983911c0-18.944318-15.25123-34.195268-34.19541-34.195268zm423.16826 51.292906c-18.94417 0-34.1954 15.251422-34.1954 34.195741v136.78156c0 18.94432 15.25123 34.19528 34.1954 34.19528h51.2931c18.94419 0 34.19542-15.25096 34.19542-34.19528v-136.78156c0-18.944319-15.25123-34.195741-34.19542-34.195741zm-491.55908 85.488653c-18.94432 0-34.19542 15.25142-34.19542 34.19574v51.29291c0 18.94386 15.2511 34.19528 34.19542 34.19528h119.68397c18.94427 0 34.19541-15.25142 34.19541-34.19528v-51.29291c0-18.94432-15.25114-34.19574-34.19541-34.19574z" fill="#ff0094"/>
  </g>
</svg>
